<svg xmlns="http://www.w3.org/2000/svg" width="375.002" height="382.001" viewBox="0 0 375.002 382.001">
  <path id="Shaped_subtraction" data-name="Shaped subtraction" d="M7657,877h-67a16.991,16.991,0,0,1-16.884-15h-.217a87.437,87.437,0,0,0-172.8,0h-.219A16.988,16.988,0,0,1,7383,877h-67a16.991,16.991,0,0,1-16.885-15H7299V495h375V792.747c0,.037,0,.075,0,.113v.012c0,.042,0,.085,0,.128v67c0,.043,0,.085,0,.128v.012c0,.038,0,.076,0,.113V862h-.116A16.988,16.988,0,0,1,7657,877Z" transform="translate(-7298.999 -495)" fill="#fc6011"/>
</svg>
